<?xml version="1.0" encoding="UTF-8"?>
<svg id="Ebene_3" data-name="Ebene 3" xmlns="http://www.w3.org/2000/svg" viewBox="0 0 1018.77 768.76">
  <defs>
    <style>
      .cls-1 {
        fill: #fff;
      }
    </style>
  </defs>
  <g>
    <polygon class="cls-1" points="762.69 599.48 808.21 599.48 808.21 680.46 727.24 680.46 727.24 635.13 762.76 634.69 762.69 599.48"/>
    <path class="cls-1" d="M762.69,255.92h45.53s0,102.05,0,102.05h-45.53s0-102.05,0-102.05ZM762.69,431.99h45.53s0,102.05,0,102.05h-45.53s0-102.05,0-102.05Z"/>
    <path class="cls-1" d="M661.8,635.13v45.53s-97.38,0-97.38,0v-45.53s97.38,0,97.38,0ZM490.4,635.13v45.53s-102.05,0-102.05,0v-45.53s102.05,0,102.05,0Z"/>
    <path class="cls-1" d="M314.33,635.13v45.53s-102.05,0-102.05,0v-45.53s102.05,0,102.05,0Z"/>
  </g>
  <g>
    <polygon class="cls-1" points="257.8 165.89 212.28 165.89 212.28 84.91 293.25 84.91 293.25 130.24 257.73 130.68 257.8 165.89"/>
    <path class="cls-1" d="M257.8,509.45h-45.53s0-102.05,0-102.05h45.53s0,102.05,0,102.05ZM257.8,333.38h-45.53s0-102.05,0-102.05h45.53s0,102.05,0,102.05Z"/>
    <path class="cls-1" d="M358.69,130.24v-45.53s97.38,0,97.38,0v45.53s-97.38,0-97.38,0ZM530.09,130.24v-45.53s102.05,0,102.05,0v45.53s-102.05,0-102.05,0Z"/>
    <path class="cls-1" d="M706.16,130.24v-45.53s102.05,0,102.05,0v45.53s-102.05,0-102.05,0Z"/>
  </g>
</svg>