<svg width="597" height="494" viewBox="0 0 597 494" fill="none" xmlns="http://www.w3.org/2000/svg">
<path d="M515.874 141.75C532.274 255.35 516.041 290.417 505.874 293.75C544.708 325.583 604.474 388.35 532.874 384.75C443.374 380.25 684.874 491.75 557.874 493.25C456.274 494.45 442.874 473.417 448.874 462.75" stroke="black"/>
<path d="M390.204 0.5C405.444 0.5 417.539 5.57141 427.177 14.666C436.827 23.7728 444.041 36.9388 449.453 53.1621C460.281 85.6174 463.847 130.144 465.428 178.392C467.007 226.603 466.604 278.541 469.516 325.683C472.422 372.744 478.638 415.152 493.481 444.456C492.583 450.453 491.46 455.037 490.099 458.39C488.723 461.777 487.13 463.849 485.346 464.883C483.584 465.903 481.547 465.961 479.152 465.123C476.743 464.281 474.012 462.545 470.933 460.039C464.774 455.028 457.357 447.059 448.497 437.434C439.648 427.82 429.38 416.576 417.547 405.059C370.302 359.074 298.027 308.647 190.872 339.587C190.754 295.509 178.859 268.204 160.979 250.63C143.027 232.984 119.111 225.221 95.293 220.058C83.393 217.478 71.4604 215.536 60.332 213.349C49.1828 211.157 38.8108 208.714 29.9336 205.12C21.059 201.528 13.7107 196.799 8.57812 190.057C3.4507 183.321 0.5 174.531 0.5 162.75C0.500186 139.257 17.0384 117.346 43.9795 97.665C70.9022 77.997 108.103 60.6396 149.174 46.2383C231.317 17.4356 328.811 0.500079 390.204 0.5Z" stroke="black"/>
</svg>
