<?xml version="1.0" encoding="UTF-8"?>
<svg id="Ebene_2" data-name="Ebene 2" xmlns="http://www.w3.org/2000/svg" viewBox="0 0 155.71 138.66">
  <defs>
    <style>
      .cls-1 {
        fill: none;
        stroke: #d6a529;
        stroke-miterlimit: 10;
      }
    </style>
  </defs>
  <g id="Ebene_1-2" data-name="Ebene 1">
    <g>
      <path class="cls-1" d="M70.49,42.17c14.75-2.33,31.94,5.27,35.23,18.13,2.65,10.39-3.97,23.39-16.58,31.51"/>
      <path class="cls-1" d="M76.11,113.7c-12.38-4.56-22.76-14.42-26.78-26.87"/>
      <path class="cls-1" d="M135.26,69.5c-.14,5.24-1.1,10.53-3.01,15.68-1.03,2.77-10.28,26.51-33.96,30.67"/>
      <path class="cls-1" d="M88.39,17.24c12.22,1.15,24.59,5.98,33.91,16.53,3.29,3.72,6.05,7.99,8.18,12.62"/>
      <path class="cls-1" d="M22.12,86.84c-1.8-8.4-1.84-17.4.68-26.53,7.94-28.84,35.83-39,38.14-39.8"/>
      <path class="cls-1" d="M123.82,128.3c-24.78,14.84-58.1,12.72-79.46-4.99"/>
      <path class="cls-1" d="M57.03,3.96c30.72-9.04,68.26-.62,86.83,28.15,15.35,23.79,16.49,59.57-4.97,83.73"/>
      <path class="cls-1" d="M2.11,101.65C-4.53,67.35,9.32,26.22,44.36,8.89"/>
      <path class="cls-1" d="M69.63,85.82c-9.07-3.42-12.79-14.09-10.22-21.73,3.78-11.25,21.15-15.68,29.39-8.31,5.4,4.83,6.29,14.18,2.56,21.09-3.9,7.22-13.07,12.2-21.73,8.95Z"/>
    </g>
  </g>
</svg>